<svg width="288" height="307" viewBox="0 0 288 307" fill="none" xmlns="http://www.w3.org/2000/svg">
<path d="M288 234.793H0V234.946H288V234.793Z" fill="#EBEBEB"/>
<path d="M181.826 238.975H167.161V239.128H181.826V238.975Z" fill="#EBEBEB"/>
<path d="M262.333 242.296H227.583V242.449H262.333V242.296Z" fill="#EBEBEB"/>
<path d="M164.039 239.048H128.137V239.201H164.039V239.048Z" fill="#EBEBEB"/>
<path d="M104.855 243.641H97.3438V243.794H104.855V243.641Z" fill="#EBEBEB"/>
<path d="M146.356 243.641H112.153V243.794H146.356V243.641Z" fill="#EBEBEB"/>
<path d="M52.364 241.05H30.2168V241.203H52.364V241.05Z" fill="#EBEBEB"/>
<path d="M136.512 207.409H25.292C24.4207 207.407 23.5856 207.037 22.9701 206.38C22.3545 205.722 22.0088 204.832 22.0088 203.903V37.2448C22.0164 36.3213 22.3654 35.4384 22.9802 34.7877C23.5949 34.137 24.4257 33.7711 25.292 33.7695H136.512C137.384 33.7695 138.221 34.1389 138.837 34.7964C139.454 35.4539 139.801 36.3456 139.801 37.2755V203.903C139.801 204.833 139.454 205.724 138.837 206.382C138.221 207.039 137.384 207.409 136.512 207.409ZM25.292 33.8923C24.4589 33.894 23.6604 34.2479 23.0719 34.8764C22.4833 35.5049 22.1528 36.3567 22.1528 37.2448V203.903C22.1528 204.791 22.4833 205.643 23.0719 206.271C23.6604 206.9 24.4589 207.254 25.292 207.255H136.512C137.345 207.254 138.145 206.9 138.734 206.272C139.323 205.643 139.655 204.791 139.657 203.903V37.2448C139.655 36.3561 139.323 35.5044 138.734 34.876C138.145 34.2477 137.345 33.894 136.512 33.8923H25.292Z" fill="#EBEBEB"/>
<path d="M261.106 207.409H149.881C149.009 207.407 148.173 207.037 147.557 206.38C146.94 205.723 146.593 204.832 146.592 203.903V37.2448C146.601 36.3208 146.951 35.4378 147.567 34.7873C148.183 34.1368 149.014 33.7711 149.881 33.7695H261.106C261.972 33.7727 262.801 34.1393 263.414 34.7898C264.028 35.4404 264.376 36.3224 264.384 37.2448V203.903C264.384 204.831 264.039 205.72 263.425 206.378C262.81 207.035 261.977 207.405 261.106 207.409ZM149.881 33.8923C149.047 33.894 148.248 34.2477 147.659 34.876C147.069 35.5044 146.737 36.3561 146.736 37.2448V203.903C146.737 204.791 147.069 205.643 147.659 206.272C148.248 206.9 149.047 207.254 149.881 207.255H261.106C261.94 207.254 262.739 206.9 263.328 206.272C263.918 205.643 264.25 204.791 264.251 203.903V37.2448C264.25 36.3561 263.918 35.5044 263.328 34.876C262.739 34.2477 261.94 33.894 261.106 33.8923H149.881Z" fill="#EBEBEB"/>
<path d="M112.873 181.541H74.6269L72.3057 152.99H110.552L112.873 181.541Z" fill="#E6E6E6"/>
<path d="M114.855 181.541H76.6084L74.2871 152.99H112.534L114.855 181.541Z" fill="#F0F0F0"/>
<path d="M81.8383 175.407L80.5596 159.117H107.303L108.582 175.407H81.8383Z" fill="white"/>
<path d="M121.472 181.541H116.985V234.793H121.472V181.541Z" fill="#E6E6E6"/>
<path d="M122.89 181.541H119.773V234.793H122.89V181.541Z" fill="#F0F0F0"/>
<path d="M79.4535 187.417H122.89V181.541H79.4535V187.417Z" fill="#F0F0F0"/>
<path d="M80.9861 187.417H76.499V234.793H80.9861V187.417Z" fill="#E6E6E6"/>
<path d="M82.4023 187.417H79.2861V234.793H82.4023V187.417Z" fill="#F0F0F0"/>
<path d="M49.0466 187.417H44.5596V234.793H49.0466V187.417Z" fill="#E6E6E6"/>
<path d="M50.4638 187.417H47.3477V234.793H50.4638V187.417Z" fill="#F0F0F0"/>
<path d="M93.0759 187.417H88.5889V234.793H93.0759V187.417Z" fill="#E6E6E6"/>
<path d="M94.4872 187.417H91.3711V234.793H94.4872V187.417Z" fill="#F0F0F0"/>
<path d="M79.4537 181.541H44.5596V187.417H79.4537V181.541Z" fill="#E6E6E6"/>
<path d="M209.572 48.7568H74.5977V128.859H209.572V48.7568Z" fill="#E0E0E0"/>
<path d="M216.985 48.7568H75.2773V128.859H216.985V48.7568Z" fill="#F5F5F5"/>
<path d="M214.67 126.391V51.2256L77.5934 51.2256V126.391L214.67 126.391Z" fill="white"/>
<path d="M133.096 126.391L158.976 51.2256H116.265L90.3857 126.391H133.096Z" fill="#F5F5F5"/>
<path d="M174.206 126.391L200.085 51.2256H167.864L141.984 126.391H174.206Z" fill="#F5F5F5"/>
<path d="M252.351 158.289H240.877V234.793H252.351V158.289Z" fill="#E6E6E6"/>
<path d="M249.333 234.794H252.351V228.905H246.171L249.333 234.794Z" fill="#FAFAFA"/>
<path d="M146.563 158.289H135.089V234.793H146.563V158.289Z" fill="#E6E6E6"/>
<path d="M252.351 158.289H143.931V233.203H252.351V158.289Z" fill="#FAFAFA"/>
<path d="M250.301 182.462H145.987V161.304H250.301V182.462ZM146.563 181.848H249.725V161.918H146.563V181.848Z" fill="#E6E6E6"/>
<path d="M231.938 171.576H166.372C163.331 171.576 160.399 168.96 158.308 164.392L158.112 163.956H240.192L239.996 164.392C237.888 168.96 235.008 171.576 231.938 171.576ZM159.057 164.552C161.004 168.622 163.665 170.943 166.372 170.943H231.938C234.657 170.943 237.307 168.622 239.253 164.552H159.057Z" fill="#E6E6E6"/>
<path d="M146.949 234.794H143.931V228.905H150.111L146.949 234.794Z" fill="#FAFAFA"/>
<path d="M250.301 206.304H145.987V185.17H250.301V206.304ZM146.563 205.69H249.725V185.784H146.563V205.69Z" fill="#E6E6E6"/>
<path d="M231.938 195.442H166.372C163.331 195.442 160.399 192.82 158.308 188.258L158.112 187.816H240.192L239.996 188.258C237.888 192.796 235.008 195.442 231.938 195.442ZM159.057 188.43C161.004 192.501 163.665 194.828 166.372 194.828H231.938C234.657 194.828 237.307 192.501 239.253 188.43H159.057Z" fill="#E6E6E6"/>
<path d="M250.301 230.188H145.987V209.029H250.301V230.188ZM146.563 229.574H249.725V209.643H146.563V229.574Z" fill="#E6E6E6"/>
<path d="M231.938 219.302H166.372C163.331 219.302 160.399 216.687 158.308 212.125L158.112 211.683H240.192L239.996 212.125C237.888 216.687 235.008 219.302 231.938 219.302ZM159.057 212.297C161.004 216.367 163.665 218.688 166.372 218.688H231.938C234.657 218.688 237.307 216.367 239.253 212.297H159.057Z" fill="#E6E6E6"/>
<path d="M69.6845 168.407V169.893H68.7974L68.0601 181.541H57.2083L56.4768 169.893H55.584V168.407H69.6845Z" fill="#E6E6E6"/>
<path d="M66.1131 139.506C65.2261 132.568 56.4421 130.591 45.2965 130.333C34.6923 130.094 31.2939 126.097 31.2939 126.097C31.2939 126.097 31.3285 142.288 46.6098 148.158C61.1192 153.721 67.0059 146.457 66.1131 139.506Z" fill="#E6E6E6"/>
<path d="M60.6992 155.231C60.8835 152.382 65.1574 147.139 75.439 149.521C82.8694 151.246 85.6342 147.139 85.6342 147.139C85.6342 147.139 84.943 158.731 73.7686 162.212C63.1529 165.522 60.3708 160.254 60.6992 155.231Z" fill="#E6E6E6"/>
<path d="M63.043 172.779C63.1009 172.779 63.1582 172.767 63.211 172.741C63.2637 172.716 63.3106 172.678 63.3483 172.631C64.0914 171.692 63.4808 169.445 62.6398 166.332C61.557 162.341 60.2091 157.367 61.3496 153.763C61.9818 151.859 62.7204 149.998 63.5614 148.188C65.1742 144.553 66.5682 141.434 65.4046 138.131C65.3865 138.078 65.3587 138.03 65.323 137.989C65.2873 137.948 65.2443 137.915 65.1965 137.892C65.1486 137.868 65.097 137.856 65.0445 137.854C64.992 137.852 64.9397 137.861 64.8905 137.881C64.8414 137.901 64.7965 137.931 64.7584 137.97C64.7202 138.008 64.6896 138.054 64.6683 138.105C64.647 138.157 64.6355 138.212 64.6343 138.268C64.6332 138.324 64.6424 138.38 64.6616 138.432C65.7042 141.373 64.4427 144.222 62.8414 147.832C61.9897 149.671 61.2396 151.561 60.595 153.493C59.3797 157.349 60.7621 162.464 61.8738 166.565C62.5304 169.021 63.2101 171.477 62.7435 172.091C62.7065 172.134 62.6781 172.184 62.6603 172.238C62.6424 172.293 62.6354 172.351 62.6397 172.409C62.6441 172.467 62.6596 172.523 62.6854 172.574C62.7112 172.625 62.7467 172.67 62.7896 172.705C62.8632 172.761 62.953 172.787 63.043 172.779Z" fill="#E6E6E6"/>
<path d="M144 262.522C205.679 262.522 255.681 259.41 255.681 255.572C255.681 251.733 205.679 248.621 144 248.621C82.3205 248.621 32.3193 251.733 32.3193 255.572C32.3193 259.41 82.3205 262.522 144 262.522Z" fill="#F5F5F5"/>
<path d="M143.977 221.685H62.1845L57.709 81.4658H139.501L143.977 221.685Z" fill="#ECD28B"/>
<path d="M148.06 217.331H66.2684L61.7871 77.1123H143.579L148.06 217.331Z" fill="#ECD28B"/>
<path opacity="0.3" d="M148.06 217.331H66.2684L61.7871 77.1123H143.579L148.06 217.331Z" fill="white"/>
<path d="M120.655 134.813C129.413 125.316 129.04 109.788 119.823 100.129C110.606 90.4706 96.0346 90.3391 87.277 99.8355C78.5194 109.332 78.892 124.86 88.1092 134.519C97.3264 144.177 111.898 144.309 120.655 134.813Z" fill="#ECD28B"/>
<path d="M122.958 117.329C123.076 120.67 122.392 123.988 120.971 126.969C119.437 130.181 117.094 132.874 114.205 134.746C111.316 136.618 107.994 137.595 104.613 137.566C101.152 137.546 97.7574 136.557 94.7689 134.697C91.7804 132.837 89.3033 130.171 87.5862 126.969C85.9851 124.034 85.0907 120.722 84.9827 117.329C84.8764 114.698 85.2731 112.071 86.1485 109.609C87.024 107.146 88.3599 104.899 90.0753 103.004C91.7906 101.109 93.8494 99.6057 96.1267 98.585C98.404 97.5643 100.852 97.0478 103.323 97.0669C108.412 97.1053 113.291 99.232 116.948 103.005C120.605 106.778 122.757 111.908 122.958 117.329Z" fill="white"/>
<path opacity="0.6" d="M120.959 126.97C119.425 130.182 117.082 132.875 114.193 134.747C111.304 136.619 107.982 137.595 104.601 137.567C101.14 137.547 97.7454 136.558 94.7569 134.698C91.7684 132.837 89.2914 130.172 87.5742 126.97C92.4455 123.429 98.2097 121.547 104.105 121.573C110.096 121.586 115.953 123.462 120.959 126.97Z" fill="#ECD28B"/>
<path opacity="0.6" d="M109.884 116.825C113.104 113.333 112.967 107.623 109.578 104.071C106.188 100.52 100.83 100.471 97.6101 103.963C94.3898 107.455 94.5268 113.165 97.9161 116.717C101.305 120.268 106.663 120.317 109.884 116.825Z" fill="#ECD28B"/>
<path d="M131.627 166.554H79.4529L79.1016 155.502H131.276L131.627 166.554Z" fill="white"/>
<path d="M132.261 186.306H80.0809L79.7295 175.254H131.909L132.261 186.306Z" fill="white"/>
<path d="M112.124 176.777L99.5498 178.619C99.4298 178.634 99.314 178.674 99.2096 178.739C99.1051 178.804 99.0143 178.891 98.9429 178.994C98.8715 179.098 98.821 179.217 98.7946 179.342C98.7682 179.468 98.7665 179.598 98.7895 179.724L100.443 188.707C100.497 188.971 100.641 189.203 100.848 189.359C101.055 189.514 101.309 189.582 101.56 189.548L114.134 187.706C114.254 187.69 114.369 187.648 114.473 187.582C114.577 187.517 114.667 187.429 114.738 187.325C114.808 187.221 114.858 187.102 114.884 186.977C114.91 186.851 114.912 186.721 114.889 186.595L113.241 177.612C113.187 177.349 113.042 177.117 112.835 176.962C112.628 176.808 112.374 176.741 112.124 176.777ZM108.512 185.876L106.208 186.202L105.984 183.304C105.746 183.194 105.537 183.026 105.374 182.812C105.21 182.598 105.098 182.346 105.045 182.076C105.003 181.867 105.002 181.65 105.043 181.441C105.084 181.232 105.166 181.034 105.283 180.86C105.4 180.686 105.55 180.541 105.724 180.433C105.897 180.325 106.09 180.257 106.289 180.234C106.698 180.178 107.112 180.287 107.449 180.541C107.786 180.794 108.022 181.173 108.109 181.603C108.159 181.862 108.144 182.131 108.065 182.383C107.986 182.634 107.846 182.858 107.66 183.034L108.512 185.876Z" fill="#ECD28B"/>
<path d="M110.88 176.292C110.657 176.322 110.433 176.262 110.249 176.125C110.066 175.987 109.938 175.782 109.889 175.549L109.728 174.671C109.498 173.472 108.868 172.404 107.954 171.663C107.041 170.922 105.907 170.56 104.763 170.643C104.185 170.678 103.621 170.845 103.11 171.133C102.598 171.421 102.15 171.823 101.797 172.312C101.444 172.8 101.194 173.364 101.064 173.965C100.933 174.566 100.926 175.19 101.042 175.794L101.226 176.807C101.247 176.92 101.247 177.035 101.224 177.147C101.201 177.259 101.156 177.365 101.093 177.457C101.029 177.55 100.948 177.627 100.855 177.684C100.762 177.742 100.659 177.777 100.552 177.79C100.329 177.823 100.103 177.764 99.9192 177.627C99.7353 177.489 99.6074 177.281 99.5614 177.047L99.4058 176.193C99.2477 175.396 99.2424 174.572 99.3904 173.772C99.5384 172.972 99.8366 172.213 100.267 171.539C100.697 170.865 101.251 170.291 101.895 169.851C102.539 169.411 103.26 169.114 104.014 168.979C105.649 168.686 107.327 169.076 108.7 170.067C110.073 171.058 111.035 172.575 111.387 174.302L111.571 175.309C111.592 175.423 111.591 175.54 111.567 175.653C111.543 175.766 111.497 175.873 111.432 175.965C111.367 176.058 111.284 176.135 111.189 176.191C111.093 176.248 110.988 176.282 110.88 176.292Z" fill="#ECD28B"/>
<path d="M123.649 201.785H89.6826L89.458 194.589H123.419L123.649 201.785Z" fill="#ECD28B"/>
<path d="M107.262 161.028C107.272 161.29 107.232 161.552 107.145 161.798C107.057 162.043 106.924 162.267 106.752 162.456C106.581 162.645 106.376 162.795 106.148 162.897C105.921 162.998 105.677 163.05 105.431 163.048C104.923 163.044 104.436 162.832 104.07 162.456C103.705 162.08 103.489 161.569 103.466 161.028C103.456 160.765 103.496 160.504 103.584 160.258C103.671 160.012 103.805 159.789 103.976 159.6C104.148 159.411 104.353 159.261 104.58 159.159C104.807 159.057 105.052 159.006 105.298 159.008C105.806 159.011 106.294 159.222 106.66 159.598C107.026 159.974 107.241 160.487 107.262 161.028Z" fill="#263238"/>
<path d="M99.0719 161.028C99.0829 161.291 99.0435 161.553 98.9561 161.799C98.8688 162.045 98.7353 162.269 98.5639 162.458C98.3925 162.647 98.1867 162.797 97.9591 162.898C97.7315 163 97.4869 163.051 97.2402 163.048C96.7329 163.044 96.2466 162.832 95.882 162.455C95.5174 162.079 95.3025 161.568 95.2818 161.028C95.2717 160.765 95.3116 160.504 95.3993 160.258C95.4869 160.012 95.6204 159.789 95.7917 159.6C95.963 159.411 96.1684 159.261 96.3956 159.159C96.6228 159.057 96.8671 159.006 97.1135 159.008C97.6212 159.011 98.1084 159.222 98.4733 159.599C98.8381 159.975 99.0526 160.487 99.0719 161.028Z" fill="#263238"/>
<path d="M90.9322 161.028C90.9424 161.29 90.9024 161.552 90.8148 161.798C90.7271 162.043 90.5936 162.267 90.4224 162.456C90.2511 162.645 90.0456 162.795 89.8184 162.897C89.5912 162.998 89.347 163.05 89.1006 163.048C88.5928 163.045 88.1057 162.834 87.7408 162.457C87.3759 162.081 87.1615 161.569 87.1422 161.028C87.132 160.765 87.172 160.504 87.2596 160.258C87.3473 160.012 87.4808 159.789 87.652 159.6C87.8233 159.411 88.0288 159.261 88.256 159.159C88.4832 159.057 88.7274 159.006 88.9739 159.008C89.4816 159.011 89.9687 159.222 90.3336 159.599C90.6985 159.975 90.913 160.487 90.9322 161.028Z" fill="#263238"/>
<path d="M115.424 161.027C115.434 161.29 115.394 161.552 115.307 161.797C115.219 162.043 115.085 162.267 114.914 162.456C114.743 162.644 114.537 162.794 114.31 162.896C114.083 162.998 113.839 163.049 113.592 163.047C113.085 163.044 112.597 162.833 112.233 162.456C111.868 162.08 111.653 161.568 111.634 161.027C111.625 160.766 111.667 160.505 111.755 160.261C111.844 160.016 111.979 159.794 112.15 159.607C112.322 159.42 112.528 159.272 112.755 159.172C112.982 159.072 113.226 159.022 113.471 159.026C113.975 159.03 114.458 159.239 114.822 159.612C115.185 159.984 115.4 160.491 115.424 161.027Z" fill="#263238"/>
<path d="M123.587 161.028C123.598 161.291 123.558 161.553 123.471 161.799C123.383 162.045 123.25 162.269 123.079 162.458C122.907 162.647 122.701 162.797 122.474 162.898C122.246 163 122.002 163.051 121.755 163.048C121.248 163.044 120.761 162.832 120.397 162.455C120.032 162.079 119.817 161.568 119.796 161.028C119.786 160.765 119.826 160.504 119.914 160.258C120.002 160.012 120.135 159.789 120.306 159.6C120.478 159.411 120.683 159.261 120.91 159.159C121.137 159.057 121.382 159.006 121.628 159.008C122.136 159.011 122.623 159.222 122.988 159.599C123.353 159.975 123.567 160.487 123.587 161.028Z" fill="#263238"/>
<path d="M192.332 107.008C193.098 108.322 193.738 109.574 194.394 110.882C195.051 112.19 195.644 113.504 196.226 114.849C197.413 117.571 198.395 120.39 199.163 123.279C199.267 123.641 199.342 124.028 199.428 124.402L199.555 124.973L199.619 125.256L199.693 125.723C199.823 126.781 199.763 127.856 199.515 128.891C199.117 130.497 198.512 132.036 197.718 133.465C196.296 136.062 194.578 138.46 192.603 140.606L190.178 138.653C191.395 136.268 192.478 133.808 193.421 131.285C193.841 130.174 194.137 129.014 194.302 127.829C194.355 127.467 194.339 127.097 194.256 126.742L194.026 125.993C193.933 125.686 193.847 125.379 193.738 125.066C192.861 122.533 191.848 120.056 190.702 117.648C189.55 115.192 188.312 112.736 187.073 110.391L192.332 107.008Z" fill="#FF8B7B"/>
<path d="M190.795 137.8L188.146 139.292L191.187 143.086C191.187 143.086 193.088 141.717 193.174 139.63L190.795 137.8Z" fill="#FF8B7B"/>
<path d="M184.591 141.631L187.845 144.388L191.186 143.087L188.145 139.292L184.591 141.631Z" fill="#FF8B7B"/>
<path d="M173.463 86.918C173.399 87.2618 173.175 87.5013 172.967 87.4583C172.76 87.4154 172.639 87.0961 172.702 86.7584C172.766 86.4207 172.99 86.1444 173.204 86.218C173.417 86.2917 173.526 86.5742 173.463 86.918Z" fill="#263238"/>
<path d="M173.203 87.5068C172.623 88.4686 171.922 89.3405 171.118 90.0979C171.308 90.3075 171.538 90.4709 171.792 90.5769C172.047 90.6829 172.32 90.7289 172.593 90.7119L173.203 87.5068Z" fill="#FF5652"/>
<path d="M172.167 99.5532V95.5254L177.167 96.1394C177.167 96.1394 177.086 99.6024 174.287 100.622L172.167 99.5532Z" fill="#FF8B7B"/>
<path d="M173.606 92.6279L177.126 93.7086L177.189 96.1707L172.189 95.526L173.606 92.6279Z" fill="#FF8B7B"/>
<path opacity="0.2" d="M177.126 93.7086L173.606 92.6279L172.921 94.0278C172.958 95.1309 173.282 96.2014 173.855 97.1205C174.429 98.0395 175.23 98.7713 176.17 99.2346C176.774 98.3342 177.128 97.2699 177.189 96.1646L177.126 93.7086Z" fill="black"/>
<path d="M174.995 85.278C175.032 85.2769 175.068 85.2647 175.098 85.2429C175.129 85.221 175.153 85.1903 175.168 85.1544C175.183 85.1184 175.189 85.0787 175.183 85.0397C175.178 85.0007 175.163 84.9641 175.139 84.9341C174.936 84.6906 174.682 84.5022 174.398 84.3847C174.113 84.2672 173.806 84.224 173.503 84.2587C173.453 84.2677 173.409 84.2974 173.38 84.3411C173.351 84.3848 173.339 84.4391 173.347 84.492C173.356 84.5453 173.383 84.593 173.424 84.6251C173.465 84.6572 173.516 84.6711 173.566 84.664C173.807 84.6388 174.049 84.6753 174.274 84.7704C174.498 84.8654 174.698 85.0163 174.856 85.2104C174.874 85.2309 174.895 85.2475 174.919 85.2591C174.943 85.2707 174.969 85.2771 174.995 85.278Z" fill="#263238"/>
<path d="M182.357 93.1309C181.781 96.293 181.424 100.671 183.509 102.777C183.509 102.777 182.702 105.982 177.173 105.982C171.119 105.982 174.264 103.17 174.264 103.17C176.781 102.335 176.758 99.2831 176.182 96.8271L182.357 93.1309Z" fill="#FF8B7B"/>
<path d="M184.632 104.889C185.173 104.079 185.15 101.506 184.574 101.052C183.647 100.321 179.667 100.149 174.316 101.463C174.892 103.956 173.653 105.258 173.653 105.258L184.632 104.889Z" fill="#ECD28B"/>
<path d="M202.638 250.659C202.473 250.721 202.299 250.747 202.125 250.736C201.951 250.726 201.781 250.679 201.624 250.598C201.565 250.539 201.524 250.462 201.507 250.377C201.491 250.292 201.499 250.204 201.532 250.125C201.55 250.058 201.581 249.997 201.624 249.945C201.667 249.893 201.72 249.852 201.779 249.824C202.327 249.542 203.582 250.088 203.64 250.113C203.657 250.12 203.672 250.133 203.682 250.149C203.692 250.166 203.698 250.185 203.698 250.205C203.697 250.224 203.693 250.244 203.683 250.261C203.674 250.278 203.661 250.293 203.646 250.303C203.321 250.455 202.983 250.574 202.638 250.659ZM201.975 249.965C201.937 249.975 201.901 249.989 201.866 250.008C201.83 250.022 201.798 250.045 201.772 250.075C201.746 250.105 201.727 250.141 201.716 250.18C201.664 250.364 201.716 250.426 201.751 250.444C201.97 250.641 202.776 250.444 203.346 250.217C202.912 250.026 202.444 249.94 201.975 249.965Z" fill="#ECD28B"/>
<path d="M203.623 250.309H203.577C203.116 250.168 202.137 249.425 202.125 248.94C202.125 248.863 202.149 248.788 202.194 248.728C202.239 248.668 202.302 248.625 202.373 248.609C202.441 248.581 202.514 248.571 202.587 248.577C202.659 248.583 202.73 248.607 202.793 248.645C203.335 248.94 203.68 250.131 203.692 250.187C203.7 250.202 203.704 250.219 203.704 250.236C203.704 250.253 203.7 250.27 203.692 250.285C203.683 250.294 203.672 250.302 203.66 250.306C203.648 250.31 203.635 250.311 203.623 250.309ZM202.471 248.781H202.425C202.309 248.824 202.309 248.885 202.309 248.916C202.309 249.204 202.966 249.788 203.461 250.021C203.34 249.677 203.075 248.995 202.724 248.793C202.646 248.755 202.557 248.751 202.476 248.781H202.471Z" fill="#ECD28B"/>
<path d="M172.719 251.384C172.201 251.384 171.7 251.304 171.533 251.059C171.489 250.993 171.466 250.915 171.466 250.835C171.466 250.754 171.489 250.676 171.533 250.61C171.566 250.55 171.61 250.498 171.662 250.457C171.715 250.416 171.775 250.387 171.838 250.371C172.512 250.174 173.929 251.034 173.987 251.071C174.004 251.08 174.019 251.095 174.027 251.114C174.035 251.133 174.037 251.155 174.033 251.175C174.031 251.196 174.022 251.216 174.009 251.232C173.995 251.247 173.977 251.257 173.958 251.261C173.549 251.341 173.135 251.382 172.719 251.384ZM172.08 250.543C172.019 250.532 171.957 250.532 171.896 250.543C171.857 250.551 171.82 250.568 171.787 250.593C171.754 250.617 171.727 250.648 171.706 250.684C171.637 250.813 171.665 250.874 171.706 250.911C171.896 251.194 172.915 251.2 173.67 251.083C173.177 250.796 172.638 250.613 172.08 250.543Z" fill="#ECD28B"/>
<path d="M173.952 251.261H173.912C173.422 251.027 172.455 250.094 172.529 249.603C172.529 249.486 172.622 249.345 172.887 249.32C172.981 249.309 173.077 249.318 173.168 249.347C173.26 249.377 173.344 249.426 173.417 249.492C173.786 249.963 174.007 250.545 174.05 251.156C174.05 251.174 174.046 251.191 174.039 251.207C174.032 251.223 174.022 251.237 174.01 251.248C173.992 251.258 173.972 251.262 173.952 251.261ZM172.961 249.511H172.904C172.731 249.511 172.72 249.597 172.72 249.621C172.673 249.916 173.33 250.653 173.831 250.972C173.787 250.479 173.6 250.014 173.296 249.64C173.201 249.554 173.08 249.508 172.956 249.511H172.961Z" fill="#ECD28B"/>
<path d="M178.399 251.162H174.349L173.946 241.16H177.996L178.399 251.162Z" fill="#FF8B7B"/>
<path d="M208.138 249.161L204.181 250.076L200.201 240.762L204.164 239.847L208.138 249.161Z" fill="#FF8B7B"/>
<path d="M203.795 249.652L208.247 248.626C208.325 248.609 208.406 248.62 208.477 248.658C208.549 248.696 208.605 248.758 208.639 248.835L210.183 252.409C210.224 252.495 210.245 252.591 210.245 252.688C210.244 252.785 210.223 252.88 210.181 252.967C210.139 253.053 210.079 253.127 210.005 253.184C209.932 253.241 209.846 253.278 209.756 253.293C208.201 253.618 207.424 253.698 205.471 254.146C204.267 254.429 201.548 255.135 199.884 255.515C198.219 255.896 197.649 254.195 198.3 253.882C201.209 252.464 202.418 251.217 203.207 250.057C203.35 249.85 203.559 249.706 203.795 249.652Z" fill="#263238"/>
<path d="M174.379 250.659H178.802C178.883 250.66 178.96 250.689 179.023 250.743C179.086 250.796 179.13 250.871 179.148 250.954L179.949 254.791C179.972 254.884 179.975 254.981 179.957 255.076C179.938 255.17 179.9 255.258 179.844 255.333C179.788 255.408 179.716 255.469 179.634 255.509C179.552 255.549 179.463 255.568 179.373 255.565C177.777 255.534 175.473 255.436 173.469 255.436C171.119 255.436 169.097 255.571 166.343 255.571C164.679 255.571 164.218 253.778 164.915 253.613C168.083 252.876 170.675 252.796 173.411 250.997C173.698 250.792 174.033 250.675 174.379 250.659Z" fill="#263238"/>
<path d="M190.754 103.766C194.55 104.693 197.666 115.027 197.666 115.027L190.08 121.21C188.111 118.966 186.722 116.215 186.048 113.228C184.706 107.812 186.872 102.808 190.754 103.766Z" fill="#ECD28B"/>
<path opacity="0.4" d="M190.754 103.766C194.55 104.693 197.666 115.027 197.666 115.027L190.08 121.21C188.111 118.966 186.722 116.215 186.048 113.228C184.706 107.812 186.872 102.808 190.754 103.766Z" fill="black"/>
<path d="M170.784 116.089C169.84 117.175 168.895 118.146 167.904 119.159C167.415 119.65 166.919 120.141 166.413 120.614L165.646 121.332L165.456 121.51L165.128 121.793C164.79 122.08 164.416 122.316 164.016 122.493C163.572 122.694 163.094 122.798 162.611 122.8C162.198 122.802 161.789 122.725 161.401 122.573C160.972 122.398 160.58 122.133 160.249 121.793C159.827 121.353 159.518 120.806 159.351 120.202C159.263 119.905 159.207 119.598 159.184 119.288C159.154 118.924 159.154 118.558 159.184 118.195C159.213 117.9 159.247 117.642 159.293 117.403C159.451 116.565 159.674 115.744 159.961 114.947C160.22 114.189 160.519 113.447 160.854 112.724C161.223 111.944 161.574 111.373 161.926 110.722C163.353 108.23 164.981 105.876 166.793 103.686C168.586 101.509 170.562 99.5112 172.697 97.7178L174.816 100.045C173.33 102.169 171.867 104.447 170.514 106.688C169.167 108.917 167.936 111.223 166.827 113.596C166.58 114.173 166.251 114.824 166.096 115.29C165.89 115.833 165.711 116.386 165.56 116.948C165.415 117.455 165.305 117.972 165.232 118.496C165.228 118.577 165.228 118.659 165.232 118.741C165.232 118.79 165.232 118.815 165.232 118.686C165.222 118.548 165.197 118.412 165.157 118.281C165.032 117.845 164.804 117.452 164.494 117.139C164.219 116.869 163.896 116.66 163.544 116.525C163.235 116.4 162.907 116.335 162.576 116.334C162.258 116.33 161.943 116.395 161.649 116.525C161.55 116.568 161.453 116.619 161.361 116.678L161.58 116.463L162.277 115.788L163.654 114.412C164.564 113.498 165.479 112.521 166.343 111.613L170.784 116.089Z" fill="#FF8B7B"/>
<path opacity="0.2" d="M187.5 111.354C189.562 113.528 190.236 117.494 190.38 120.933L190.046 121.209C188.077 118.965 186.688 116.215 186.014 113.227C185.939 112.908 185.87 112.613 185.818 112.263L187.5 111.354Z" fill="black"/>
<path d="M166.758 108.064C165.928 112.73 165.41 122.315 167.812 141.287H189.504C189.654 137.745 187.563 120.442 190.771 103.735C188.374 103.244 185.95 102.918 183.514 102.759C180.444 102.571 177.367 102.571 174.298 102.759C173.284 102.857 172.282 103.017 171.418 103.183C170.268 103.397 169.208 103.979 168.376 104.851C167.543 105.722 166.979 106.843 166.758 108.064Z" fill="#ECD28B"/>
<path opacity="0.4" d="M166.758 108.064C165.928 112.73 165.41 122.315 167.812 141.287H189.504C189.654 137.745 187.563 120.442 190.771 103.735C188.374 103.244 185.95 102.918 183.514 102.759C180.444 102.571 177.367 102.571 174.298 102.759C173.284 102.857 172.282 103.017 171.418 103.183C170.268 103.397 169.208 103.979 168.376 104.851C167.543 105.722 166.979 106.843 166.758 108.064Z" fill="black"/>
<path opacity="0.2" d="M170.076 114.983L166.16 113.982C166.039 116.512 166.027 119.644 166.2 123.518C168.003 121.332 170.307 117.918 170.076 114.983Z" fill="black"/>
<path opacity="0.2" d="M173.946 241.16L174.154 246.318H178.209L178.001 241.16H173.946Z" fill="black"/>
<path opacity="0.2" d="M204.164 239.847L200.201 240.762L202.252 245.563L206.215 244.648L204.164 239.847Z" fill="black"/>
<path d="M184.28 88.5143C183.243 92.6527 182.828 95.1333 180.432 96.8525C176.832 99.4681 172.339 96.4718 172.224 92.1001C172.098 88.1521 173.82 82.0428 177.984 81.2077C178.899 81.0246 179.843 81.093 180.727 81.4063C181.61 81.7196 182.404 82.2676 183.034 82.9986C183.664 83.7297 184.109 84.6196 184.327 85.5846C184.545 86.5496 184.529 87.5578 184.28 88.5143Z" fill="#FF8B7B"/>
<path d="M175.191 88.6675C174.995 88.1149 174.103 83.8353 174.944 82.724C175.784 81.6126 185.375 82.417 186.792 83.9029C189.148 86.3589 187.512 88.5693 184.937 91.4121C183.002 93.5488 182.927 95.9557 181.948 96.3241C180.22 96.9381 177.582 96.3609 177.052 94.4145C176.522 92.4682 175.191 88.6675 175.191 88.6675Z" fill="#263238"/>
<path d="M185.628 79.0338C182.241 77.4988 175.888 79.1996 172.455 78.3154C172.412 79.6762 172.831 81.0078 173.637 82.0642C174.443 83.1206 175.58 83.8304 176.839 84.0625C179.686 84.641 182.58 84.9268 185.479 84.9159C189.246 84.7317 188.508 80.3416 185.628 79.0338Z" fill="#263238"/>
<path d="M186.158 84.0314C187.395 84.1612 188.641 83.9075 189.747 83.3008C190.38 84.934 186.895 85.3822 186.158 84.0314Z" fill="#263238"/>
<path d="M177.034 88.8393C176.956 89.9041 176.551 90.9119 175.882 91.7067C174.995 92.7444 174.073 92.0935 173.918 90.8348C173.78 89.6928 174.068 87.7648 175.151 87.2122C176.233 86.6596 177.109 87.5561 177.034 88.8393Z" fill="#FF8B7B"/>
<path d="M175.502 141.305C175.502 141.305 180.11 174.308 182.627 186.674C185.386 200.212 200.212 245.004 200.212 245.004L207.464 243.327C207.464 243.327 197.096 206.819 194.792 187.889C193.007 173.35 189.499 141.293 189.499 141.293L175.502 141.305Z" fill="#ECD28B"/>
<path d="M198.473 242.431C198.444 242.431 199.827 245.231 199.827 245.231L207.983 243.346L207.297 240.73L198.473 242.431Z" fill="#263238"/>
<path opacity="0.3" d="M178.411 153.064C183.727 154.175 183.163 175.309 182.524 186.183C180.991 178.496 178.745 163.711 177.213 153.217C177.584 153.022 178.007 152.968 178.411 153.064Z" fill="black"/>
<path d="M167.812 141.306C167.812 141.306 167.236 173.596 167.697 186.742C168.158 200.44 172.645 245.293 172.645 245.293H179.511C179.511 245.293 179.759 201.238 180.087 187.786C180.421 173.123 182.08 141.281 182.08 141.281L167.812 141.306Z" fill="#ECD28B"/>
<path d="M171.326 242.407C171.292 242.407 171.712 245.44 171.712 245.44H180.058L180.289 242.733L171.326 242.407Z" fill="#263238"/>
<path d="M175.248 109.5C177.19 115.082 165.779 121.658 165.779 121.658L160.837 114.904C160.837 114.904 164.16 107.892 168.192 104.736C173.175 100.843 173.768 105.251 175.248 109.5Z" fill="#ECD28B"/>
<path opacity="0.4" d="M175.248 109.5C177.19 115.082 165.779 121.658 165.779 121.658L160.837 114.904C160.837 114.904 164.16 107.892 168.192 104.736C173.175 100.843 173.768 105.251 175.248 109.5Z" fill="black"/>
<path d="M219.958 67.1288C231.439 67.1288 240.746 60.8061 240.746 53.0068C240.746 45.2074 231.439 38.8848 219.958 38.8848C208.477 38.8848 199.17 45.2074 199.17 53.0068C199.17 60.8061 208.477 67.1288 219.958 67.1288Z" fill="#ECD28B"/>
<path d="M212.458 60.1165C211.088 60.1118 209.764 59.5928 208.718 58.6507C207.672 57.7085 206.971 56.4036 206.738 54.9651C206.509 53.4069 206.839 51.8139 207.662 50.5032C208.484 49.1924 209.74 48.2601 211.179 47.8918C212.36 47.6018 213.596 47.7136 214.714 48.2114C215.832 48.7092 216.775 49.568 217.411 50.6671L230.757 47.7321C231.27 47.6124 231.806 47.7033 232.259 47.9867C232.712 48.2702 233.048 48.7252 233.199 49.261C233.269 49.5427 233.285 49.8366 233.244 50.1248C233.204 50.413 233.109 50.6893 232.965 50.937C232.821 51.1847 232.631 51.3985 232.407 51.5653C232.183 51.7322 231.929 51.8485 231.662 51.9073L231.316 51.981C231.265 51.9908 231.216 52.0131 231.174 52.0461C231.132 52.0791 231.098 52.122 231.074 52.1714C231.053 52.2215 231.042 52.2759 231.042 52.331C231.042 52.3861 231.053 52.4405 231.074 52.4906L231.31 53.1415C231.389 53.3524 231.397 53.5862 231.332 53.8025C231.267 54.0188 231.133 54.2041 230.953 54.3265C230.811 54.4198 230.692 54.5462 230.603 54.6962C230.514 54.8462 230.458 55.0159 230.44 55.1922C230.423 55.3946 230.347 55.5862 230.222 55.7394C230.097 55.8927 229.929 55.9999 229.743 56.0457L229.473 56.1071C229.285 56.1441 229.091 56.1164 228.919 56.0281C228.747 55.9398 228.606 55.7954 228.517 55.6159C228.397 55.4017 228.218 55.2327 228.004 55.1323C227.79 55.0319 227.552 55.0052 227.323 55.0559C227.094 55.1066 226.886 55.2322 226.727 55.4151C226.568 55.598 226.467 55.8292 226.437 56.0764C226.421 56.2775 226.346 56.468 226.221 56.6203C226.097 56.7726 225.931 56.8789 225.746 56.9237L225.475 56.9851C225.288 57.0211 225.094 56.993 224.923 56.9048C224.751 56.8166 224.61 56.6728 224.519 56.4939C224.433 56.3416 224.317 56.2112 224.178 56.1115C224.04 56.0118 223.883 55.9454 223.718 55.9168C223.497 55.8883 223.293 55.7747 223.144 55.5972C222.996 55.4197 222.913 55.1906 222.912 54.9528V54.2528C222.91 54.1981 222.896 54.1445 222.873 54.0958C222.849 54.047 222.816 54.0043 222.776 53.9705C222.735 53.9367 222.688 53.9126 222.638 53.8998C222.588 53.8871 222.536 53.886 222.486 53.8967L218.229 54.83C218.056 56.0871 217.523 57.2566 216.703 58.1794C215.884 59.1023 214.818 59.7336 213.65 59.9876C213.258 60.0731 212.858 60.1163 212.458 60.1165ZM211.306 48.4505C209.999 48.7758 208.857 49.6167 208.109 50.8038C207.361 51.9909 207.062 53.4361 207.274 54.8484C207.5 56.1623 208.16 57.3464 209.135 58.1864C210.109 59.0265 211.333 59.4671 212.586 59.4285C213.839 59.39 215.037 58.8748 215.964 57.9761C216.892 57.0775 217.487 55.8547 217.642 54.5291V54.3081L222.336 53.295C222.471 53.2602 222.611 53.2579 222.747 53.2882C222.882 53.3184 223.01 53.3805 223.12 53.4698C223.23 53.5592 223.321 53.6736 223.384 53.8048C223.448 53.936 223.483 54.0806 223.488 54.2283V54.9282C223.489 55.0116 223.518 55.0919 223.568 55.1556C223.618 55.2194 223.688 55.2627 223.765 55.2782C224.016 55.3166 224.257 55.4157 224.467 55.5678C224.678 55.7199 224.853 55.9212 224.98 56.1562C225.01 56.2225 225.06 56.277 225.12 56.3122C225.181 56.3474 225.251 56.3615 225.32 56.3527L225.585 56.2913C225.652 56.2729 225.712 56.2319 225.755 56.1743C225.799 56.1168 225.824 56.0459 225.827 55.972C225.863 55.5898 226.012 55.2298 226.253 54.944C226.494 54.6582 226.814 54.4614 227.167 54.3821C227.519 54.3029 227.886 54.3452 228.215 54.5029C228.544 54.6607 228.817 54.9257 228.995 55.2598C229.024 55.3255 229.072 55.3798 229.132 55.4151C229.192 55.4503 229.261 55.4647 229.329 55.4563L229.605 55.3949C229.671 55.3753 229.73 55.3338 229.772 55.2764C229.815 55.219 229.839 55.1486 229.841 55.0756C229.87 54.806 229.956 54.5469 230.093 54.3181C230.229 54.0893 230.413 53.8969 230.63 53.7555C230.694 53.7067 230.74 53.6367 230.762 53.5566C230.784 53.4765 230.78 53.3909 230.751 53.3134L230.515 52.6626C230.466 52.5284 230.446 52.3845 230.454 52.2408C230.463 52.0972 230.501 51.9574 230.566 51.8311C230.631 51.7048 230.721 51.5951 230.829 51.5096C230.938 51.4241 231.063 51.365 231.195 51.3363L231.546 51.2565C231.736 51.2133 231.917 51.1296 232.076 51.0105C232.235 50.8914 232.37 50.7393 232.472 50.5634C232.575 50.3874 232.643 50.1911 232.673 49.9863C232.703 49.7816 232.694 49.5724 232.646 49.3715C232.534 48.9851 232.289 48.6583 231.96 48.4568C231.631 48.2552 231.242 48.1937 230.872 48.2847L217.152 51.324L217.048 51.1337C216.497 50.0876 215.641 49.2612 214.611 48.7794C213.58 48.2975 212.43 48.1864 211.334 48.4628L211.306 48.4505ZM212.458 57.8324C211.742 57.8409 211.04 57.6276 210.436 57.2184C209.722 56.7186 209.192 55.9701 208.938 55.1006C208.683 54.2312 208.719 53.2945 209.04 52.4504C209.361 51.6063 209.947 50.9069 210.697 50.4715C211.448 50.0361 212.317 49.8916 213.156 50.0627C213.995 50.2338 214.753 50.7099 215.299 51.4098C215.846 52.1097 216.148 52.9901 216.154 53.9008C216.16 54.8116 215.87 55.6964 215.332 56.4044C214.795 57.1124 214.043 57.5997 213.206 57.7833C212.961 57.8306 212.712 57.8512 212.463 57.8447L212.458 57.8324ZM212.458 50.5811C212.243 50.5824 212.029 50.605 211.818 50.6486C211.417 50.7397 211.037 50.9142 210.699 51.1621C210.36 51.41 210.072 51.7264 209.848 52.0933C209.625 52.4602 209.472 52.8703 209.397 53.3004C209.322 53.7305 209.328 54.172 209.414 54.5997C209.499 55.0275 209.663 55.4331 209.895 55.7934C210.128 56.1537 210.425 56.4617 210.769 56.6997C211.113 56.9378 211.498 57.1012 211.901 57.1807C212.305 57.2603 212.719 57.2543 213.12 57.1632C213.722 57.0295 214.274 56.7087 214.706 56.2412C215.138 55.7738 215.43 55.1805 215.545 54.5364C215.661 53.8922 215.596 53.2259 215.357 52.6214C215.118 52.017 214.716 51.5014 214.203 51.1398C213.693 50.7783 213.093 50.588 212.481 50.5934L212.458 50.5811Z" fill="white"/>
<path opacity="0.6" d="M203.04 75.4116C206.813 75.4116 209.872 73.3334 209.872 70.7698C209.872 68.2062 206.813 66.1279 203.04 66.1279C199.267 66.1279 196.209 68.2062 196.209 70.7698C196.209 73.3334 199.267 75.4116 203.04 75.4116Z" fill="#ECD28B"/>
<path opacity="0.3" d="M192.171 77.3146C193.721 77.3146 194.976 76.4624 194.976 75.4112C194.976 74.36 193.721 73.5078 192.171 73.5078C190.622 73.5078 189.366 74.36 189.366 75.4112C189.366 76.4624 190.622 77.3146 192.171 77.3146Z" fill="#ECD28B"/>
</svg>
