<svg width="124" height="124" viewBox="0 0 124 124" fill="none" xmlns="http://www.w3.org/2000/svg">
<circle cx="62" cy="62" r="62" fill="#2A2A72"/>
<path fill-rule="evenodd" clip-rule="evenodd" d="M77.8352 48.477L62.5 42.1194C62.1159 41.9602 61.6841 41.9601 61.3 42.1194L45.9648 48.477C45.3807 48.7192 45 49.2886 45 49.9201V57.6486C45 68.2902 51.4415 77.8627 61.3087 81.8842C61.6877 82.0386 62.1123 82.0386 62.4913 81.8842C72.3584 77.8628 78.8 68.2903 78.8 57.6486V49.9201C78.8 49.2886 78.4194 48.7192 77.8352 48.477ZM60.992 64.1744L68.8984 56.2798C69.6167 55.5625 70.7813 55.5625 71.4997 56.2798C72.2181 56.9971 72.218 58.1601 71.4996 58.8773L62.2927 68.0706C61.5742 68.788 60.4096 68.7878 59.6914 68.0706L54.5506 62.9375C53.8322 62.2202 53.8322 61.0572 54.5506 60.34C55.269 59.6227 56.4337 59.6226 57.152 60.34L60.992 64.1744Z" fill="white"/>
</svg>
